<svg xmlns="http://www.w3.org/2000/svg" style="display: none;">
  
    <symbol id="icon-closesvg" viewBox="0 0 512 512">
      <path d="m251 0c-138 0-251 113-251 251 0 139 113 252 251 252 139 0 252-113 252-252 0-138-113-251-252-251z m92 315c1 2 3 4 4 6 1 3 2 5 2 8 0 3-1 5-2 8-1 2-2 4-4 6-2 2-4 3-6 4-3 1-5 2-8 2-3 0-5-1-8-2-2-1-4-3-6-4l-64-64-63 64c-4 3-9 5-14 5-5 0-10-2-13-6-4-3-6-8-6-13 0-5 2-10 5-14l64-64-64-63c-3-4-5-9-5-14 0-5 2-10 6-13 3-4 8-6 13-6 5 0 10 2 14 5l63 64 64-64c4-3 9-5 14-5 5 0 10 2 13 6 4 3 6 8 6 13 0 5-2 10-5 14l-64 63z"/>
    </symbol>
  
    <symbol id="icon-ellipsis-v" viewBox="0 0 512 512">
      <path d="m311 357l0 54c0 8-3 15-8 20-5 5-12 8-20 8l-54 0c-8 0-15-3-20-8-5-5-8-12-8-20l0-54c0-8 3-15 8-20 5-5 12-8 20-8l54 0c8 0 15 3 20 8 5 5 8 12 8 20z m0-147l0 55c0 8-3 14-8 20-5 5-12 8-20 8l-54 0c-8 0-15-3-20-8-5-6-8-12-8-20l0-55c0-7 3-14 8-19 5-5 12-8 20-8l54 0c8 0 15 3 20 8 5 5 8 12 8 19z m0-146l0 55c0 7-3 14-8 19-5 6-12 8-20 8l-54 0c-8 0-15-2-20-8-5-5-8-12-8-19l0-55c0-8 3-14 8-19 5-6 12-8 20-8l54 0c8 0 15 2 20 8 5 5 8 11 8 19z"/>
    </symbol>
  
    <symbol id="icon-pencil" viewBox="0 0 512 512">
      <path d="m140 439l26-26-67-67-26 26 0 30 37 0 0 37z m150-265c0-4-2-7-7-7-1 0-3 1-4 2l-155 155c-2 2-2 3-2 5 0 4 2 6 6 6 2 0 4 0 5-2l155-154c1-2 2-3 2-5z m-16-55l119 119-238 237-118 0 0-118z m195 27c0 10-3 19-10 26l-48 47-118-118 47-48c7-7 15-10 26-10 10 0 18 3 26 10l67 67c7 8 10 16 10 26z"/>
    </symbol>
  
    <symbol id="icon-check" viewBox="0 0 512 512">
      <path d="m477 162c0 7-2 14-8 19l-206 207-39 39c-6 5-12 8-20 8-7 0-14-3-19-8l-142-142c-6-6-8-12-8-20 0-7 2-14 8-19l38-39c6-5 12-8 20-8 7 0 14 3 19 8l84 84 188-188c5-5 12-8 19-8 8 0 14 3 20 8l38 39c6 6 8 12 8 20z"/>
    </symbol>
  
    <symbol id="icon-times" viewBox="0 0 512 512">
      <path d="m426 378c0 7-3 14-8 19l-39 39c-5 5-12 8-20 8-7 0-14-3-19-8l-84-84-84 84c-5 5-12 8-19 8-8 0-15-3-20-8l-39-39c-5-5-8-12-8-19 0-8 3-14 8-20l84-84-84-84c-5-5-8-12-8-19 0-8 3-14 8-20l39-38c5-6 12-8 20-8 7 0 14 2 19 8l84 84 84-84c5-6 12-8 19-8 8 0 15 2 20 8l39 38c5 6 8 12 8 20 0 7-3 14-8 19l-84 84 84 84c5 6 8 12 8 20z"/>
    </symbol>
  
    <symbol id="icon-plus-1" viewBox="0 0 512 512">
      <path d="m457 210l0 55c0 8-3 14-8 20-5 5-12 8-19 8l-119 0 0 118c0 8-3 15-8 20-5 5-12 8-20 8l-54 0c-8 0-15-3-20-8-5-5-8-12-8-20l0-118-119 0c-7 0-14-3-19-8-5-6-8-12-8-20l0-55c0-7 3-14 8-19 5-5 12-8 19-8l119 0 0-119c0-8 3-14 8-19 5-6 12-8 20-8l54 0c8 0 15 2 20 8 5 5 8 11 8 19l0 119 119 0c7 0 14 3 19 8 5 5 8 12 8 19z"/>
    </symbol>
  
    <symbol id="icon-home" viewBox="0 0 512 512">
      <path d="m421 283l0 138c0 5-2 9-6 12-3 4-8 6-13 6l-109 0 0-110-74 0 0 110-109 0c-5 0-10-2-13-6-4-3-6-7-6-12l0-138c0 0 0 0 0 0 0-1 0-1 0-1l164-136 165 136c0 0 0 1 0 1z m63-19l-17 21c-2 2-4 3-6 3l-1 0c-3 0-5-1-6-2l-198-165-198 165c-2 2-4 2-7 2-2 0-4-1-6-3l-17-21c-2-2-2-4-2-7 0-3 1-5 3-6l205-171c6-5 14-8 22-8 8 0 16 3 22 8l69 58 0-56c0-2 1-5 3-6 2-2 4-3 7-3l54 0c3 0 5 1 7 3 2 1 3 4 3 6l0 117 62 52c2 1 3 3 3 6 0 3 0 5-2 7z"/>
    </symbol>
  
    <symbol id="icon-calendar" viewBox="0 0 512 512">
      <path d="m435 77c15 0 27 5 37 15c9 10 14 22 14 36c0 0 0 307 0 307c0 14-5 26-14 36c-10 10-22 15-37 15c0 0-358 0-358 0c-14 0-26-5-36-15c-10-10-15-22-15-36c0 0 0-307 0-307c0-14 5-26 15-36c10-10 22-15 36-15c0 0 23 0 23 0c0 0 0 51 0 51c0 0 82 0 82 0c0 0 0-51 0-51c0 0 149 0 149 0c0 0 0 51 0 51c0 0 82 0 82 0c0 0 0-51 0-51c0 0 22 0 22 0m0 358c0 0 0-205 0-205c0 0-358 0-358 0c0 0 0 205 0 205c0 0 358 0 358 0m-276-409c0 0 0 87 0 87c0 0-36 0-36 0c0 0 0-87 0-87c0 0 36 0 36 0m230 0c0 0 0 87 0 87c0 0-36 0-36 0c0 0 0-87 0-87c0 0 36 0 36 0"/>
    </symbol>
  
    <symbol id="icon-sign-out" viewBox="0 0 512 512">
      <path d="m201 411c0 1 0 3 0 6 1 3 1 6 1 8-1 2-1 4-1 6-1 3-2 5-3 6-2 1-4 2-6 2l-91 0c-23 0-42-8-59-24-16-16-24-36-24-58l0-202c0-22 8-42 24-58 17-16 36-24 59-24l91 0c2 0 5 1 6 3 2 2 3 4 3 6 0 1 0 3 0 6 1 3 1 6 1 8-1 2-1 4-1 6-1 3-2 5-3 6-2 1-4 2-6 2l-91 0c-13 0-24 4-33 13-9 9-13 20-13 32l0 202c0 12 4 23 13 32 9 9 20 13 33 13l89 0 3 1 3 0 3 2 2 3z m265-155c0 5-2 9-5 13l-156 155c-3 4-7 6-12 6-5 0-10-2-13-6-4-3-6-8-6-13l0-82-128 0c-5 0-9-2-13-5-3-4-5-8-5-13l0-110c0-5 2-9 5-13 4-3 8-5 13-5l128 0 0-82c0-5 2-10 6-13 3-4 8-6 13-6 5 0 9 2 12 6l156 155c3 4 5 8 5 13z"/>
    </symbol>
  
    <symbol id="icon-sign-in" viewBox="0 0 512 512">
      <path d="m375 256c0 5-2 9-6 13l-155 155c-4 4-8 6-13 6-5 0-9-2-13-6-3-3-5-8-5-13l0-82-128 0c-5 0-9-2-13-5-4-4-5-8-5-13l0-110c0-5 1-9 5-13 4-3 8-5 13-5l128 0 0-82c0-5 2-10 5-13 4-4 8-6 13-6 5 0 9 2 13 6l155 155c4 4 6 8 6 13z m100-101l0 202c0 22-8 42-24 58-16 16-35 24-58 24l-91 0c-3 0-5-1-7-3-2-2-2-4-2-6 0-1-1-3-1-6 0-3 0-6 0-8 0-2 1-4 1-6 0-3 1-5 3-6 1-1 3-2 6-2l91 0c13 0 23-4 32-13 9-9 14-20 14-32l0-202c0-12-5-23-14-32-9-9-19-13-32-13l-89 0-3-1-4 0-2-2-2-3 0-3c0-1-1-3-1-6 0-3 0-6 0-8 0-2 1-4 1-6 0-3 1-5 3-6 1-1 3-2 6-2l91 0c23 0 42 8 58 24 16 16 24 36 24 58z"/>
    </symbol>
  
    <symbol id="icon-chevron-right" viewBox="0 0 512 512">
      <path d="m405 238c0 10-3 18-10 26l-186 186c-7 7-16 10-26 10c-10 0-19-3-26-10l-22-22c-7-7-10-16-10-26c0-10 3-18 10-25l139-139l-139-139c-7-7-10-16-10-26c0-10 3-19 10-26l22-21c7-7 16-11 26-11c10 0 19 4 26 11l186 186c7 7 10 16 10 26z"/>
    </symbol>
  
    <symbol id="icon-chevron-left" viewBox="0 0 512 512">
      <path d="m303 449l-186-186c-7-7-10-15-10-25c0-11 3-19 10-26l186-186c7-7 16-11 26-11c10 0 19 4 26 11l22 21c7 7 10 16 10 26c0 10-3 19-10 26l-139 139l139 138c7 8 10 16 10 26c0 10-3 19-10 26l-22 21c-7 7-16 11-26 11c-10 0-19-4-26-11z"/>
    </symbol>
  
    <symbol id="icon-star-empty-1" viewBox="0 0 512 512">
      <path d="m433 186l-110 0l-33-102l-1 0c-9-28-21-42-33-42c-12 0-24 14-33 42l-1 0l-33 102l-110 0c-59 0-68 28-20 62l1 1l1 0c0 0 0 0 0 0l87 62l-34 101c0 0 0 0 0 0l0 1l0 1c-12 36-6 56 13 56c10 0 24-6 40-17l1-1l88-63l86 62c0 0 0 0 0 0l1 1l1 1c17 11 30 17 40 17c19 0 26-20 14-56l-1-1l0-1c0 0 0 0 0 0l-33-101l86-61c0 0 0 0 0-1l2-1c49-34 40-62-19-62z m-93 90l-26 19l10 30l26 78l-69-49l-25-18l-25 18l-69 49l26-78l10-30l-25-19l-68-48l115 0l10-29l26-80l26 80l10 29l115 0z"/>
    </symbol>
  
    <symbol id="icon-star-4" viewBox="0 0 512 512">
      <path d="m59 248l1 0l2 1c0 0 0 0 0 0l86 62l-33 101c0 0 0 0 0 0l-1 1l0 1c-18 55 6 72 53 38l1 0l88-63l86 62c0 0 0 0 0 0l2 1l1 1c47 34 71 16 53-39l0-1l-1-1c0 0 0 0 0 0l-33-101l86-62c0 0 0 0 0 0l3-1c47-34 38-62-20-62l-110 0l-34-102l0 0c-18-56-48-56-67 0l0 0l-33 102l-111 0c-57 0-66 27-19 62z"/>
    </symbol>
  
    <symbol id="icon-sort" viewBox="0 0 512 512">
      <path d="m402 311c0 5-2 9-5 13l-128 128c-4 3-8 5-13 5-5 0-9-2-13-5l-128-128c-3-4-5-8-5-13 0-5 2-9 5-13 4-4 8-5 13-5l256 0c5 0 9 1 13 5 3 4 5 8 5 13z m0-110c0 5-2 9-5 13-4 4-8 5-13 5l-256 0c-5 0-9-1-13-5-3-4-5-8-5-13 0-5 2-9 5-13l128-128c4-3 8-5 13-5 5 0 9 2 13 5l128 128c3 4 5 8 5 13z"/>
    </symbol>
  
    <symbol id="icon-list-1" viewBox="0 0 512 512">
      <path d="m473 371l-309 0c-21 0-38 17-38 39 0 21 17 38 38 38l309 0c22 0 39-17 39-38 0-22-17-39-39-39z m0-154l-309 0c-21 0-38 17-38 39 0 21 17 38 38 38l309 0c22 0 39-17 39-38 0-22-17-39-39-39z m-309-76l309 0c22 0 39-18 39-39 0-21-17-39-39-39l-309 0c-21 0-38 18-38 39 0 21 17 39 38 39z m-86-39c0 22-17 40-39 40-21 0-39-18-39-40 0-21 18-39 39-39 22 0 39 18 39 39z m0 154c0 21-17 39-39 39-21 0-39-18-39-39 0-22 18-39 39-39 22 0 39 17 39 39z m0 154c0 21-17 39-39 39-21 0-39-18-39-39 0-22 18-40 39-40 22 0 39 18 39 40z"/>
    </symbol>
  
</svg>
